<svg preserveAspectRatio="none" width="100%" height="100%" overflow="visible" style="display: block;" viewBox="0 0 10 10" fill="none" xmlns="http://www.w3.org/2000/svg">
<g id="Frame" clip-path="url(#clip0_0_24)">
<path id="Vector" d="M0.518415 1.38007C0.232327 1.38007 0 1.61167 0 1.89793V8.96567C0 9.25093 0.232391 9.48352 0.518415 9.48352H9.48159C9.76767 9.48352 10 9.25192 10 8.96567V1.89793C10 1.61266 9.76761 1.38007 9.48159 1.38007H7.58621L7.93103 1.7249V0.862069C7.93103 0.671626 7.77665 0.517241 7.58621 0.517241C7.39576 0.517241 7.24138 0.671626 7.24138 0.862069V1.7249V2.06973H7.58621H9.48159C9.38659 2.06973 9.31035 1.99342 9.31035 1.89793V8.96567C9.31035 8.87055 9.38727 8.79387 9.48159 8.79387H0.518415C0.613411 8.79387 0.689655 8.87018 0.689655 8.96567V1.89793C0.689655 1.99304 0.61273 2.06973 0.518415 2.06973H2.41379C2.60424 2.06973 2.75862 1.91534 2.75862 1.7249C2.75862 1.53446 2.60424 1.38007 2.41379 1.38007H0.518415ZM2.06897 1.7249C2.06897 1.91534 2.22335 2.06973 2.41379 2.06973C2.60424 2.06973 2.75862 1.91534 2.75862 1.7249V0.862069C2.75862 0.671626 2.60424 0.517241 2.41379 0.517241C2.22335 0.517241 2.06897 0.671626 2.06897 0.862069V1.7249ZM10 3.44904V3.10421H9.65517H0.344828H0V3.44904V4.31111C0 4.50155 0.154385 4.65593 0.344828 4.65593C0.535271 4.65593 0.689655 4.50155 0.689655 4.31111V3.44904L0.344828 3.79387H9.65517L9.31035 3.44904V4.31111C9.31035 4.50155 9.46473 4.65593 9.65517 4.65593C9.84562 4.65593 10 4.50155 10 4.31111V3.44904ZM7.58728 5.68965C7.77773 5.68965 7.93211 5.53527 7.93211 5.34483C7.93211 5.15438 7.77773 5 7.58728 5H2.41379C2.22335 5 2.06897 5.15438 2.06897 5.34483C2.06897 5.53527 2.22335 5.68965 2.41379 5.68965H7.58728ZM2.41379 6.72414C2.22335 6.72414 2.06897 6.87852 2.06897 7.06897C2.06897 7.25941 2.22335 7.41379 2.41379 7.41379H5.86315C6.05359 7.41379 6.20797 7.25941 6.20797 7.06897C6.20797 6.87852 6.05359 6.72414 5.86315 6.72414H2.41379ZM7.58621 2.06973L7.24138 1.7249V2.41532C7.24138 2.60576 7.39576 2.76015 7.58621 2.76015C7.77665 2.76015 7.93103 2.60576 7.93103 2.41532V1.7249V1.38007H7.58621H2.41379C2.22335 1.38007 2.06897 1.53446 2.06897 1.7249C2.06897 1.91534 2.22335 2.06973 2.41379 2.06973H7.58621ZM2.75862 1.7249C2.75862 1.53446 2.60424 1.38007 2.41379 1.38007C2.22335 1.38007 2.06897 1.53446 2.06897 1.7249V2.41532C2.06897 2.60576 2.22335 2.76015 2.41379 2.76015C2.60424 2.76015 2.75862 2.60576 2.75862 2.41532V1.7249Z" fill="var(--fill-0, #666666)"/>
</g>
<defs>
<clipPath id="clip0_0_24">
<rect width="10" height="10" fill="white"/>
</clipPath>
</defs>
</svg>
